HIERARCHY
ROOT Hips
{
    OFFSET 0.000000 0.000000 0.000000
    CHANNELS 6 Xposition Yposition Zposition Zrotation Xrotation Yrotation
    JOINT Spine
    {
        OFFSET -0.000000 0.081317 0.000000
        CHANNELS 3 Zrotation Xrotation Yrotation
        JOINT Spine1
        {
            OFFSET -0.000000 0.225200 0.000000
            CHANNELS 3 Zrotation Xrotation Yrotation
            JOINT Neck
            {
                OFFSET -0.000000 0.224275 0.020389
                CHANNELS 3 Zrotation Xrotation Yrotation
                JOINT Head
                {
                    OFFSET -0.000000 0.138833 -0.019833
                    CHANNELS 3 Zrotation Xrotation Yrotation
                    End Site
                    {
                        OFFSET -0.000000 0.198333 0.000000
                    }
                }
            }
            JOINT LeftShoulder
            {
                OFFSET 0.039732 0.208237 -0.000812
                CHANNELS 3 Zrotation Xrotation Yrotation
                JOINT LeftArm
                {
                    OFFSET 0.110955 0.000000 0.000000
                    CHANNELS 3 Zrotation Xrotation Yrotation
                    JOINT LeftForeArm
                    {
                        OFFSET 0.324523 0.000000 0.000000
                        CHANNELS 3 Zrotation Xrotation Yrotation
                        JOINT LeftHand
                        {
                            OFFSET 0.302601 0.000000 0.000000
                            CHANNELS 3 Zrotation Xrotation Yrotation
                            End Site
                            {
                                OFFSET 0.148750 0.000000 0.000000
                            }
                        }
                    }
                }
            }
            JOINT RightShoulder
            {
                OFFSET -0.039598 0.208237 -0.000812
                CHANNELS 3 Zrotation Xrotation Yrotation
                JOINT RightArm
                {
                    OFFSET -0.110955 0.000000 0.000000
                    CHANNELS 3 Zrotation Xrotation Yrotation
                    JOINT RightForeArm
                    {
                        OFFSET -0.324523 0.000000 0.000000
                        CHANNELS 3 Zrotation Xrotation Yrotation
                        JOINT RightHand
                        {
                            OFFSET -0.302601 0.000000 0.000000
                            CHANNELS 3 Zrotation Xrotation Yrotation
                            End Site
                            {
                                OFFSET -0.148750 0.000000 0.000000
                            }
                        }
                    }
                }
            }
        }
    }
    JOINT LeftUpLeg
    {
        OFFSET 0.099167 0.000000 0.000000
        CHANNELS 3 Zrotation Xrotation Yrotation
        JOINT LeftLeg
        {
            OFFSET -0.000000 -0.380753 0.000000
            CHANNELS 3 Zrotation Xrotation Yrotation
            JOINT LeftFoot
            {
                OFFSET -0.000000 -0.440093 0.000000
                CHANNELS 3 Zrotation Xrotation Yrotation
                JOINT LeftToeBase
                {
                    OFFSET -0.000000 -0.064458 0.148750
                    CHANNELS 3 Zrotation Xrotation Yrotation
                    End Site
                    {
                        OFFSET -0.000000 0.000000 0.039667
                    }
                }
            }
        }
    }
    JOINT RightUpLeg
    {
        OFFSET -0.099167 0.000000 0.000000
        CHANNELS 3 Zrotation Xrotation Yrotation
        JOINT RightLeg
        {
            OFFSET -0.000000 -0.380753 0.000000
            CHANNELS 3 Zrotation Xrotation Yrotation
            JOINT RightFoot
            {
                OFFSET -0.000000 -0.440093 0.000000
                CHANNELS 3 Zrotation Xrotation Yrotation
                JOINT RightToeBase
                {
                    OFFSET -0.000000 -0.064458 0.148750
                    CHANNELS 3 Zrotation Xrotation Yrotation
                    End Site
                    {
                        OFFSET -0.000000 0.000000 0.039667
                    }
                }
            }
        }
    }
}
MOTION
Frames:    8
Frame Time:    0.010000
-0.343438    0.910904    -0.237906    1.064079    -1.487862    53.834286    0.193487    -18.904825    -1.764403    3.462173    34.241470    -1.662375    4.278563    21.056168    -12.067051    4.632727    -19.897379    -10.922154    -8.923143    1.217960    -9.357882    -25.510868    2.123582    -6.927786    -17.135033    61.504807    -79.653290    45.246510    37.591133    -51.673141    4.114554    -3.112641    8.209574    61.112850    62.921963    -32.794968    -32.802185    -13.475769    91.016823    1.227871    21.440079    13.180528    7.049157    7.273121    24.044617    -1.739497    -3.717064    41.093071    12.233947    21.607155    -56.527973    0.000000    0.000000    0.000000    -5.536815    10.367226    -18.570835    2.302668    -3.619595    0.265875    6.200673    17.170731    -21.104393    0.000000    0.000000    0.000000    
-0.343383    0.910934    -0.237885    1.058714    -1.485603    53.833076    0.199588    -18.889414    -1.764937    3.441985    34.209694    -1.655641    4.278224    21.047264    -12.068085    4.613345    -19.847553    -10.931553    -8.925538    1.209963    -9.352371    -25.497530    2.126882    -6.940918    -17.205578    61.545082    -79.585060    45.285919    37.600628    -51.683727    4.116434    -3.105446    8.210999    61.131229    62.909142    -32.794964    -32.791943    -13.460438    91.018234    1.222059    21.443438    13.187984    7.048534    7.277317    24.059221    -1.743030    -3.728534    41.083782    12.256887    21.603148    -56.541519    0.000000    0.000000    0.000000    -5.537060    10.365799    -18.566860    2.303041    -3.620218    0.278194    6.204671    17.176186    -21.120356    0.000000    0.000000    0.000000    
-0.343302    0.910942    -0.237822    1.059489    -1.493341    53.830872    0.212086    -18.865276    -1.767068    3.417407    34.178127    -1.648369    4.273471    21.055698    -12.077880    4.618493    -19.821896    -10.941059    -8.927888    1.207925    -9.346304    -25.486460    2.128244    -6.947785    -17.275734    61.570629    -79.512917    45.284985    37.608574    -51.687916    4.117039    -3.102540    8.228650    61.171715    62.886177    -32.817608    -32.786507    -13.439689    91.018555    1.220371    21.457016    13.174391    7.056546    7.297340    24.080296    -1.756241    -3.737984    41.019447    12.250743    21.615835    -56.496727    0.000000    0.000000    0.000000    -5.525887    10.379129    -18.574965    2.294353    -3.629267    0.272257    6.206222    17.195732    -21.100754    0.000000    0.000000    0.000000    
-0.343245    0.910961    -0.237779    1.049740    -1.492757    53.830589    0.222096    -18.851934    -1.766146    3.399731    34.146908    -1.642154    4.247131    21.040478    -12.078381    4.641217    -19.775461    -10.938269    -8.927320    1.189914    -9.346613    -25.484650    2.126725    -6.949503    -17.335190    61.611328    -79.447037    45.305836    37.628017    -51.714993    4.115558    -3.106172    8.229313    61.206581    62.872707    -32.834076    -32.773479    -13.416242    91.022263    1.204182    21.465240    13.169200    7.064257    7.303031    24.098621    -1.767597    -3.753509    41.027142    12.279662    21.628437    -56.532288    0.000000    0.000000    0.000000    -5.518956    10.374162    -18.589710    2.297036    -3.630548    0.280778    6.219432    17.205364    -21.119797    0.000000    0.000000    0.000000    
-0.343170    0.910978    -0.237713    1.041415    -1.493501    53.817966    0.236820    -18.832285    -1.758726    3.375883    34.104832    -1.631821    4.236495    21.023512    -12.086579    4.646001    -19.734077    -10.948169    -8.933039    1.189940    -9.330680    -25.475996    2.130136    -6.960715    -17.363132    61.636749    -79.413963    45.323994    37.649109    -51.716011    4.114101    -3.097897    8.226303    61.249256    62.885448    -32.854572    -32.775105    -13.414205    91.008797    1.185708    21.458866    13.179082    7.068727    7.318186    24.114428    -1.781136    -3.774410    41.024876    12.294302    21.619259    -56.523479    0.000000    0.000000    0.000000    -5.514137    10.370093    -18.580229    2.292190    -3.628562    0.284143    6.180940    17.213793    -21.093338    0.000000    0.000000    0.000000    
-0.343118    0.910994    -0.237641    1.028419    -1.499396    53.818401    0.248780    -18.809299    -1.756158    3.361987    34.042217    -1.625280    4.308858    21.019320    -12.153891    4.624050    -19.691841    -11.023533    -8.923631    1.208303    -9.348023    -25.485163    2.123034    -6.947153    -17.415701    61.658138    -79.356415    45.343166    37.640938    -51.741344    4.118227    -3.077597    8.235682    61.300133    62.878044    -32.897293    -32.758202    -13.401228    91.007751    1.166599    21.449694    13.190856    7.087994    7.319489    24.149086    -1.791273    -3.774087    41.006451    12.305562    21.624187    -56.548615    0.000000    0.000000    0.000000    -5.494113    10.370518    -18.581715    2.286240    -3.638834    0.269991    6.251480    17.217503    -21.126787    0.000000    0.000000    0.000000    
-0.343057    0.911023    -0.237575    1.023692    -1.507104    53.811356    0.259052    -18.773891    -1.753106    3.353167    33.982666    -1.620175    4.288623    20.980333    -12.165431    4.621797    -19.618547    -11.041660    -8.933054    1.198079    -9.345507    -25.485203    2.116810    -6.938517    -17.472532    61.705254    -79.291901    45.347130    37.684704    -51.759163    4.114586    -3.062755    8.238263    61.319427    62.877102    -32.907074    -32.749058    -13.382233    91.012306    1.131561    21.456684    13.206656    7.100283    7.332388    24.169432    -1.800648    -3.781750    41.027176    12.323224    21.615723    -56.591000    0.000000    0.000000    0.000000    -5.482860    10.376177    -18.570000    2.282356    -3.642012    0.267939    6.247591    17.234596    -21.124554    0.000000    0.000000    0.000000    
-0.342990    0.911058    -0.237520    1.017661    -1.504608    53.802441    0.263932    -18.751831    -1.742859    3.339172    33.977417    -1.612601    4.278333    20.839056    -12.131630    4.522535    -19.552357    -11.045683    -8.918716    1.143376    -9.301414    -25.505219    2.130637    -6.975336    -17.572046    61.756767    -79.199165    45.364452    37.706940    -51.776119    4.104620    -3.118263    8.179750    61.330822    62.922943    -32.889713    -32.721611    -13.346860    91.025345    1.133284    21.467733    13.206966    7.098406    7.334998    24.190157    -1.795696    -3.788487    41.049133    12.336649    21.629538    -56.626709    0.000000    0.000000    0.000000    -5.480289    10.375723    -18.549417    2.276803    -3.651058    0.272726    6.276005    17.248871    -21.147154    0.000000    0.000000    0.000000    
